<svg width="70" height="70" viewBox="0 0 70 70" fill="none" xmlns="http://www.w3.org/2000/svg">
<path opacity="0.51" fill-rule="evenodd" clip-rule="evenodd" d="M35 0C35.9283 0 36.8185 0.368749 37.4749 1.02513C38.1313 1.6815 38.5 2.57174 38.5 3.5V7C38.5 7.92826 38.1313 8.8185 37.4749 9.47487C36.8185 10.1313 35.9283 10.5 35 10.5C34.0717 10.5 33.1815 10.1313 32.5251 9.47487C31.8687 8.8185 31.5 7.92826 31.5 7V3.5C31.5 3.04037 31.5905 2.58525 31.7664 2.16061C31.9423 1.73597 32.2001 1.35013 32.5251 1.02513C32.8501 0.700121 33.236 0.442313 33.6606 0.266421C34.0852 0.09053 34.5404 0 35 0ZM10.25 10.25C10.575 9.92496 10.9609 9.66712 11.3855 9.4912C11.8102 9.31529 12.2653 9.22475 12.725 9.22475C13.1847 9.22475 13.6398 9.31529 14.0645 9.4912C14.4891 9.66712 14.875 9.92496 15.2 10.25L17.675 12.725C18 13.05 18.2578 13.4359 18.4337 13.8605C18.6096 14.2852 18.7002 14.7404 18.7002 15.2C18.7002 15.6597 18.6096 16.1148 18.4337 16.5395C18.2578 16.9641 18 17.35 17.675 17.675C17.35 18 16.9641 18.2578 16.5395 18.4337C16.1148 18.6096 15.6597 18.7002 15.2 18.7002C14.7404 18.7002 14.2852 18.6096 13.8605 18.4337C13.4359 18.2578 13.05 18 12.725 17.675L10.25 15.2C9.92496 14.875 9.66712 14.4891 9.4912 14.0645C9.31529 13.6398 9.22475 13.1847 9.22475 12.725C9.22475 12.2653 9.31529 11.8102 9.4912 11.3855C9.66712 10.9609 9.92496 10.575 10.25 10.25ZM59.75 10.25C60.075 10.575 60.3329 10.9609 60.5088 11.3855C60.6847 11.8102 60.7753 12.2653 60.7753 12.725C60.7753 13.1847 60.6847 13.6398 60.5088 14.0645C60.3329 14.4891 60.075 14.875 59.75 15.2L57.275 17.675C56.6186 18.3314 55.7283 18.7002 54.8 18.7002C53.8717 18.7002 52.9814 18.3314 52.325 17.675C51.6686 17.0186 51.2998 16.1283 51.2998 15.2C51.2998 14.2717 51.6686 13.3814 52.325 12.725L54.8 10.25C55.125 9.92496 55.5109 9.66712 55.9355 9.4912C56.3602 9.31529 56.8153 9.22475 57.275 9.22475C57.7347 9.22475 58.1898 9.31529 58.6145 9.4912C59.0391 9.66712 59.425 9.92496 59.75 10.25ZM17.5 35C17.5 30.3587 19.3437 25.9075 22.6256 22.6256C25.9075 19.3437 30.3587 17.5 35 17.5C39.6413 17.5 44.0925 19.3437 47.3744 22.6256C50.6563 25.9075 52.5 30.3587 52.5 35C52.5 39.6413 50.6563 44.0925 47.3744 47.3744C44.0925 50.6563 39.6413 52.5 35 52.5C30.3587 52.5 25.9075 50.6563 22.6256 47.3744C19.3437 44.0925 17.5 39.6413 17.5 35ZM0 35C0 34.0717 0.368749 33.1815 1.02513 32.5251C1.6815 31.8687 2.57174 31.5 3.5 31.5H7C7.45963 31.5 7.91475 31.5905 8.33939 31.7664C8.76403 31.9423 9.14987 32.2001 9.47487 32.5251C9.79988 32.8501 10.0577 33.236 10.2336 33.6606C10.4095 34.0852 10.5 34.5404 10.5 35C10.5 35.4596 10.4095 35.9148 10.2336 36.3394C10.0577 36.764 9.79988 37.1499 9.47487 37.4749C9.14987 37.7999 8.76403 38.0577 8.33939 38.2336C7.91475 38.4095 7.45963 38.5 7 38.5H3.5C2.57174 38.5 1.6815 38.1313 1.02513 37.4749C0.368749 36.8185 0 35.9283 0 35ZM59.5 35C59.5 34.0717 59.8688 33.1815 60.5251 32.5251C61.1815 31.8687 62.0718 31.5 63 31.5H66.5C66.9596 31.5 67.4148 31.5905 67.8394 31.7664C68.264 31.9423 68.6499 32.2001 68.9749 32.5251C69.2999 32.8501 69.5577 33.236 69.7336 33.6606C69.9095 34.0852 70 34.5404 70 35C70 35.4596 69.9095 35.9148 69.7336 36.3394C69.5577 36.764 69.2999 37.1499 68.9749 37.4749C68.6499 37.7999 68.264 38.0577 67.8394 38.2336C67.4148 38.4095 66.9596 38.5 66.5 38.5H63C62.0718 38.5 61.1815 38.1313 60.5251 37.4749C59.8688 36.8185 59.5 35.9283 59.5 35ZM52.325 52.325C52.65 52 53.0359 51.7421 53.4605 51.5662C53.8852 51.3903 54.3403 51.2997 54.8 51.2997C55.2597 51.2997 55.7148 51.3903 56.1395 51.5662C56.5641 51.7421 56.95 52 57.275 52.325L59.75 54.8C60.075 55.125 60.3328 55.5109 60.5087 55.9355C60.6846 56.3602 60.7752 56.8154 60.7752 57.275C60.7752 57.7346 60.6846 58.1898 60.5087 58.6145C60.3328 59.0391 60.075 59.425 59.75 59.75C59.425 60.075 59.0391 60.3328 58.6145 60.5087C58.1898 60.6846 57.7346 60.7752 57.275 60.7752C56.8154 60.7752 56.3602 60.6846 55.9355 60.5087C55.5109 60.3328 55.125 60.075 54.8 59.75L52.325 57.275C52 56.95 51.7421 56.5641 51.5662 56.1395C51.3903 55.7148 51.2997 55.2597 51.2997 54.8C51.2997 54.3403 51.3903 53.8852 51.5662 53.4605C51.7421 53.0359 52 52.65 52.325 52.325ZM12.725 52.325C13.3814 51.6686 14.2717 51.2998 15.2 51.2998C16.1283 51.2998 17.0186 51.6686 17.675 52.325C18.3314 52.9814 18.7002 53.8717 18.7002 54.8C18.7002 55.7283 18.3314 56.6186 17.675 57.275L15.2 59.75C14.875 60.075 14.4891 60.3328 14.0645 60.5087C13.6398 60.6846 13.1847 60.7752 12.725 60.7752C12.2654 60.7752 11.8102 60.6846 11.3855 60.5087C10.9609 60.3328 10.575 60.075 10.25 59.75C9.92498 59.425 9.66716 59.0391 9.49126 58.6145C9.31536 58.1898 9.22482 57.7346 9.22482 57.275C9.22482 56.8154 9.31536 56.3602 9.49126 55.9355C9.66716 55.5109 9.92498 55.125 10.25 54.8L12.725 52.325ZM35 59.5C35.9283 59.5 36.8185 59.8688 37.4749 60.5251C38.1313 61.1815 38.5 62.0718 38.5 63V66.5C38.5 67.4283 38.1313 68.3185 37.4749 68.9749C36.8185 69.6313 35.9283 70 35 70C34.0717 70 33.1815 69.6313 32.5251 68.9749C31.8687 68.3185 31.5 67.4283 31.5 66.5V63C31.5 62.0718 31.8687 61.1815 32.5251 60.5251C33.1815 59.8688 34.0717 59.5 35 59.5Z" fill="#FBB617"/>
</svg>
