<svg width="46" height="37" viewBox="0 0 46 37" fill="#1DA1F2" xmlns="http://www.w3.org/2000/svg">
<path d="M40.6596 9.09545C40.6877 9.4889 40.6877 9.88244 40.6877 10.2759C40.6877 22.2768 31.5536 36.1047 14.859 36.1047C9.71565 36.1047 4.93778 34.615 0.918701 32.0295C1.64947 32.1137 2.35203 32.1418 3.11091 32.1418C7.35475 32.1418 11.2614 30.7085 14.3811 28.2633C10.3902 28.179 7.04564 25.5652 5.8933 21.9677C6.45546 22.052 7.01752 22.1082 7.60779 22.1082C8.42282 22.1082 9.23794 21.9957 9.99673 21.7991C5.83716 20.9559 2.71737 17.3022 2.71737 12.8897V12.7773C3.92585 13.4518 5.33124 13.8734 6.82071 13.9296C4.37554 12.2994 2.7736 9.51702 2.7736 6.3692C2.7736 4.68291 3.2232 3.13712 4.0102 1.78805C8.47897 7.29669 15.1962 10.8941 22.7283 11.2877C22.5878 10.6131 22.5035 9.91056 22.5035 9.20791C22.5035 4.20511 26.5507 0.129883 31.5815 0.129883C34.1953 0.129883 36.5561 1.22599 38.2144 2.99662C40.266 2.60317 42.2334 1.84429 43.976 0.804415C43.3014 2.91236 41.868 4.683 39.985 5.80713C41.8119 5.61049 43.5825 5.10448 45.2126 4.40192C43.9761 6.20059 42.4303 7.80253 40.6596 9.09545V9.09545Z" fill="#1DA1F2"/>
</svg>